<svg width="35" height="36" viewBox="0 0 35 36" fill="none" xmlns="http://www.w3.org/2000/svg">
<rect x="-0.00012207" y="0.318848" width="35.0001" height="35.0001" rx="8" fill="#F8F8FF"/>
<path d="M9.75964 22.3188H11.2421V13.8638H9.74792L7.53894 15.4165V16.8052L9.72449 15.3052H9.75964V22.3188ZM16.3866 22.4653C18.3202 22.4653 19.6737 21.4575 19.6737 20.0161V20.0044C19.6737 18.9321 18.8885 18.1001 17.7694 17.8716V17.8364C18.7303 17.5786 19.3632 16.8755 19.3632 15.9731V15.9614C19.3632 14.6665 18.1327 13.7173 16.3866 13.7173C14.6464 13.7173 13.41 14.6665 13.41 15.9614V15.9731C13.41 16.8755 14.0428 17.5786 15.0038 17.8364V17.8716C13.8846 18.1001 13.1053 18.9321 13.1053 20.0044V20.0161C13.1053 21.4575 14.453 22.4653 16.3866 22.4653ZM16.3866 17.356C15.5077 17.356 14.9042 16.8462 14.9042 16.1138V16.1021C14.9042 15.3696 15.5135 14.8599 16.3866 14.8599C17.2596 14.8599 17.869 15.3696 17.869 16.1021V16.1138C17.869 16.8462 17.2655 17.356 16.3866 17.356ZM16.3866 21.311C15.3788 21.311 14.6581 20.731 14.6581 19.9224V19.9106C14.6581 19.0962 15.3671 18.5103 16.3866 18.5103C17.4061 18.5103 18.1151 19.0962 18.1151 19.9106V19.9224C18.1151 20.731 17.4003 21.311 16.3866 21.311ZM20.8573 19.5356H23.3124V21.8501H24.6073V19.5356H27.0682V18.2349H24.6073V15.9204H23.3124V18.2349H20.8573V19.5356Z" fill="#737C98"/>
</svg>
