<svg width="168" height="48" viewBox="0 0 168 48" fill="none" xmlns="http://www.w3.org/2000/svg">
<g clip-path="url(#clip0_640_1916)">
<path d="M22.2129 0.326764C21.4624 -0.108922 20.5376 -0.108921 19.7871 0.326765L1.21235 11.1095C0.462128 11.545 0 12.3497 0 13.2205V34.7795C0 35.6505 0.462287 36.4552 1.21271 36.8907L7.565 40.5767C8.21174 40.952 9.02013 40.4829 9.02013 39.7323V18.4544C9.02013 17.5837 9.48214 16.7791 10.2322 16.3436L19.7872 10.7952C20.5376 10.3594 21.4624 10.3593 22.213 10.7948L31.7747 16.3437C32.525 16.7791 32.9873 17.5839 32.9873 18.4548V29.5454C32.9873 30.4164 32.525 31.2211 31.7747 31.6566L22.2132 37.2053C21.4625 37.6409 20.5376 37.6407 19.7871 37.2047L15.9352 34.9672C15.2885 34.5915 14.4797 35.0606 14.4797 35.8114V43.1832C14.4797 44.0537 14.9415 44.8582 15.6914 45.2938L19.7869 47.6729C20.5375 48.1089 21.4626 48.1091 22.2133 47.6732L40.7877 36.8908C41.5379 36.4553 42 35.6506 42 34.7798V13.2205C42 12.3497 41.5379 11.545 40.7877 11.1095L22.2129 0.326764Z" fill="#1D3068"/>
<path d="M26.5575 28.347C27.1579 27.9987 27.5277 27.3548 27.5277 26.658V21.3348C27.5277 20.638 27.1579 19.9941 26.5575 19.6458L21.9706 16.9842C21.37 16.6358 20.6301 16.636 20.0297 16.9847L15.4491 19.6456C14.8492 19.9941 14.4797 20.6377 14.4797 21.3341V26.6587C14.4797 27.3551 14.8492 27.9987 15.4491 28.3472L20.0297 31.0081C20.6301 31.3568 21.37 31.357 21.9706 31.0086L26.5575 28.347Z" fill="#1D3068"/>
<path d="M75.0614 6.83987H79.8782V34.3266H75.0614V6.83987Z" fill="#1D3068"/>
<path d="M102.391 34.3266H97.5742V31.6925C96.9626 32.6341 96.147 33.3722 95.1276 33.9067C94.1082 34.4157 92.8339 34.6702 91.3048 34.6702C89.9031 34.6702 88.6034 34.4157 87.4055 33.9067C86.2332 33.3722 85.2138 32.6469 84.3473 31.7306C83.4808 30.789 82.8054 29.6946 82.3212 28.4475C81.8624 27.175 81.6331 25.8134 81.6331 24.3627C81.6331 22.8865 81.8624 21.5249 82.3212 20.2778C82.8054 19.0053 83.4808 17.9109 84.3473 16.9947C85.2138 16.053 86.2332 15.3277 87.4055 14.8187C88.6034 14.2842 89.9159 14.017 91.343 14.017C92.8722 14.017 94.1337 14.2842 95.1276 14.8187C96.147 15.3277 96.9626 16.053 97.5742 16.9947V14.3987H102.391V34.3266ZM97.5742 23.4464C97.3958 22.123 96.8224 21.0159 95.854 20.1251C94.8855 19.2089 93.6495 18.7508 92.1458 18.7508C91.3048 18.7508 90.5402 18.9035 89.8521 19.2089C89.164 19.5143 88.5779 19.9215 88.0936 20.4305C87.6349 20.9396 87.2781 21.5376 87.0233 22.2248C86.7684 22.912 86.641 23.6373 86.641 24.4008C86.641 25.1389 86.7684 25.8388 87.0233 26.5005C87.2781 27.1623 87.6349 27.7476 88.0936 28.2566C88.5779 28.7656 89.164 29.1729 89.8521 29.4783C90.5402 29.7837 91.3048 29.9364 92.1458 29.9364C92.8849 29.9364 93.573 29.8218 94.2102 29.5928C94.8473 29.3383 95.3952 29.0074 95.854 28.6002C96.3382 28.1676 96.7205 27.6713 97.0008 27.1113C97.3066 26.526 97.4978 25.9152 97.5742 25.2789V23.4464Z" fill="#1D3068"/>
<path d="M112.318 8.51962V14.3987H117.287V18.4072H112.318V27.4168C112.318 28.5366 112.573 29.2874 113.082 29.6691C113.592 30.0509 114.293 30.2418 115.185 30.2418C115.516 30.2418 115.848 30.2291 116.179 30.2036C116.536 30.1527 116.905 30.1018 117.287 30.0509V34.4411C116.115 34.5939 115.032 34.6702 114.038 34.6702C113.019 34.6702 112.101 34.5684 111.286 34.3648C110.47 34.1612 109.782 33.8176 109.221 33.334C108.661 32.825 108.227 32.176 107.922 31.3871C107.641 30.5726 107.501 29.5801 107.501 28.4093V18.4072H104.099V14.3987H107.501V8.51962H112.318Z" fill="#1D3068"/>
<path d="M118.668 8.8632C118.668 8.07423 118.948 7.39979 119.509 6.83987C120.095 6.27996 120.796 6 121.611 6C122.427 6 123.115 6.27996 123.676 6.83987C124.262 7.39979 124.555 8.07423 124.555 8.8632C124.555 9.67762 124.262 10.3648 123.676 10.9247C123.115 11.4592 122.427 11.7264 121.611 11.7264C120.796 11.7264 120.095 11.4592 119.509 10.9247C118.948 10.3648 118.668 9.67762 118.668 8.8632ZM119.203 14.3987H124.02V34.3266H119.203V14.3987Z" fill="#1D3068"/>
<path d="M168 34.3266H163.183V31.6925C162.571 32.6341 161.756 33.3722 160.736 33.9067C159.717 34.4157 158.443 34.6702 156.914 34.6702C155.512 34.6702 154.212 34.4157 153.014 33.9067C151.842 33.3722 150.823 32.6469 149.956 31.7306C149.09 30.789 148.414 29.6946 147.93 28.4475C147.471 27.175 147.242 25.8134 147.242 24.3627C147.242 22.8865 147.471 21.5249 147.93 20.2778C148.414 19.0053 149.09 17.9109 149.956 16.9947C150.823 16.053 151.842 15.3277 153.014 14.8187C154.212 14.2842 155.525 14.017 156.952 14.017C158.481 14.017 159.743 14.2842 160.736 14.8187C161.756 15.3277 162.571 16.053 163.183 16.9947V14.3987H168V34.3266ZM163.183 23.4465C163.005 22.123 162.431 21.0159 161.463 20.1251C160.494 19.2089 159.258 18.7508 157.755 18.7508C156.914 18.7508 156.149 18.9035 155.461 19.2089C154.773 19.5143 154.187 19.9215 153.702 20.4305C153.244 20.9396 152.887 21.5377 152.632 22.2248C152.377 22.912 152.25 23.6373 152.25 24.4009C152.25 25.1389 152.377 25.8388 152.632 26.5005C152.887 27.1623 153.244 27.7476 153.702 28.2566C154.187 28.7656 154.773 29.1729 155.461 29.4783C156.149 29.7837 156.914 29.9364 157.755 29.9364C158.494 29.9364 159.182 29.8218 159.819 29.5928C160.456 29.3383 161.004 29.0074 161.463 28.6002C161.947 28.1676 162.329 27.6713 162.61 27.1114C162.915 26.526 163.107 25.9152 163.183 25.2789V23.4465Z" fill="#1D3068"/>
<path d="M126.932 14.3987H131.749V17.5673C132.488 16.473 133.431 15.6076 134.578 14.9714C135.724 14.3351 137.037 14.017 138.515 14.017C139.585 14.017 140.554 14.1951 141.42 14.5514C142.287 14.9077 143.013 15.4168 143.599 16.0785C144.211 16.7147 144.67 17.4783 144.976 18.369C145.307 19.2598 145.473 20.2397 145.473 21.3086V34.3266H140.656V22.8738C140.656 21.5504 140.286 20.5323 139.547 19.8197C138.808 19.1071 137.865 18.7508 136.718 18.7508C136.005 18.7508 135.342 18.9162 134.73 19.2471C134.144 19.5525 133.635 19.9597 133.201 20.4687C132.768 20.9777 132.424 21.5758 132.169 22.263C131.914 22.9247 131.774 23.5992 131.749 24.2863V34.3266H126.932V14.3987Z" fill="#1D3068"/>
<path d="M52.56 42V14.3987H57.3768V16.9947C58.0139 16.053 58.8294 15.3277 59.8234 14.8187C60.8428 14.2842 62.117 14.017 63.6462 14.017C65.0734 14.017 66.3731 14.2842 67.5455 14.8187C68.7178 15.3277 69.7372 16.053 70.6037 16.9947C71.4702 17.9109 72.1328 19.0053 72.5916 20.2778C73.0758 21.5249 73.3179 22.8865 73.3179 24.3627C73.3179 25.8134 73.0758 27.175 72.5916 28.4475C72.1328 29.6946 71.4702 30.789 70.6037 31.7306C69.7372 32.6469 68.7178 33.3722 67.5455 33.9067C66.3731 34.4157 65.0734 34.6702 63.6462 34.6702C62.117 34.6702 60.8428 34.4157 59.8234 33.9067C58.8294 33.3722 58.0139 32.6341 57.3768 31.6925V42H52.56ZM57.3768 23.4465V25.2789C57.4532 25.9152 57.6316 26.526 57.9119 27.1114C58.2178 27.6713 58.6001 28.1676 59.0588 28.6002C59.543 29.0074 60.1037 29.3383 60.7408 29.5928C61.378 29.8218 62.0661 29.9364 62.8052 29.9364C63.6462 29.9364 64.4107 29.7837 65.0988 29.4783C65.787 29.1729 66.3604 28.7656 66.8191 28.2566C67.3033 27.7476 67.6729 27.1623 67.9277 26.5005C68.1826 25.8388 68.31 25.1389 68.31 24.4009C68.31 23.6373 68.1826 22.912 67.9277 22.2248C67.6729 21.5377 67.3033 20.9396 66.8191 20.4305C66.3604 19.9215 65.787 19.5143 65.0988 19.2089C64.4107 18.9035 63.6462 18.7508 62.8052 18.7508C61.3015 18.7508 60.0655 19.2089 59.097 20.1251C58.1286 21.0159 57.5552 22.123 57.3768 23.4465Z" fill="#1D3068"/>
</g>
<defs>
<clipPath id="clip0_640_1916">
<rect width="168" height="48" fill="white"/>
</clipPath>
</defs>
</svg>
