<svg width="25" height="26" viewBox="0 0 25 26" fill="none" xmlns="http://www.w3.org/2000/svg">
<path d="M12.5 18.2084C15.3764 18.2084 17.7083 15.8766 17.7083 13.0001C17.7083 10.1236 15.3764 7.79175 12.5 7.79175C9.62348 7.79175 7.29163 10.1236 7.29163 13.0001C7.29163 15.8766 9.62348 18.2084 12.5 18.2084Z" fill="url(#paint0_linear_1473_335)"/>
<path d="M17.3948 3.21149L16.1708 6.1667C15.7718 7.1292 14.3281 6.53128 14.7271 5.56878L15.951 2.61357C16.35 1.65107 17.7937 2.24899 17.3948 3.21149ZM10.2635 20.4271L9.03956 23.3823C8.6406 24.3448 7.19685 23.7469 7.59581 22.7844L8.81976 19.8292C9.21872 18.8667 10.6625 19.4646 10.2635 20.4271V20.4271ZM22.8802 9.54274L19.925 10.7667C18.9625 11.1657 18.3646 9.7219 19.3271 9.32295L22.2823 8.09899C23.2448 7.70003 23.8427 9.14378 22.8802 9.54274V9.54274ZM5.66456 16.674L2.70935 17.8979C1.74685 18.2969 1.14893 16.8532 2.11143 16.4542L5.06664 15.2302C6.02914 14.8313 6.62706 16.275 5.66456 16.674V16.674ZM22.2823 17.899L19.3271 16.675C18.3646 16.2761 18.9625 14.8323 19.925 15.2313L22.8802 16.4552C23.8427 16.8542 23.2448 18.2979 22.2823 17.899ZM5.06664 10.7677L2.11143 9.54378C1.14893 9.14482 1.74685 7.70107 2.70935 8.10003L5.66456 9.32399C6.62706 9.72294 6.02914 11.1667 5.06664 10.7677V10.7677ZM9.03851 2.61253L10.2625 5.56774C10.6614 6.53024 9.21768 7.12815 8.81872 6.16565L7.59476 3.21044C7.19581 2.24794 8.63956 1.65003 9.03851 2.61253V2.61253ZM16.1698 19.8282L17.3937 22.7834C17.7927 23.7459 16.3489 24.3438 15.95 23.3813L14.726 20.4261C14.3271 19.4636 15.7708 18.8657 16.1698 19.8282V19.8282Z" fill="#FFB300"/>
<defs>
<linearGradient id="paint0_linear_1473_335" x1="12.5" y1="7.79175" x2="12.5" y2="18.0696" gradientUnits="userSpaceOnUse">
<stop stop-color="#FFC227"/>
<stop offset="1" stop-color="#FFB300"/>
</linearGradient>
</defs>
</svg>
